{"title":"Helmuth Kautner - Auf Wiedersehn, Franziska! (1941)","uid":5664743,"size":1252822521,"categoryP":"video","categoryS":"movies","magnet":"?xt=urn:btih:a444268f89035aa435aab2633bfcb06086a813bb&amp;dn=Helmuth+Kautner+-+Auf+Wiedersehn%2C+Franziska%21+%281941%29&amp;tr=udp%3A%2F%2Ftracker.openbittorrent.com%3A80&amp;tr=udp%3A%2F%2Fopen.demonii.com%3A1337&amp;tr=udp%3A%2F%2Ftracker.coppersurfer.tk%3A6969&amp;tr=udp%3A%2F%2Fexodus.desync.com%3A6969","seeders":1,"leechers":0,"uploader":"mfccorrea","files":5,"time":1278097536,"description":"It is love at first sight between professor's daughter Franziska and Michael, a roving reporter. The story begins in 1932 and ends during the second world war. The couple's love goes from one farewell to the next. Michael is always going somewhere to film world envents for his agency: accidents, natural desasters, and wars. Franziska stays at home in a picturesque little town, entirely alone at first, then alone with their two children. She gradually loses hope and becomes melancholic, but she cannot leave the great love of her life. A melodrama with many comic moments, this film is also distinguished by the brilliant acting of Marianne Hoppe and Hans SÃƒÂ¶hnker.\n\n   General\n      Complete name : Franziska.avi\n      Format : AVI\n      Format/Info : Audio Video Interleave\n      File size : 1.13 GiB\n      Duration : 1h 33mn\n      Overall bit rate : 1 727 Kbps\n      Writing application : FairUse Wizard - http://fairusewizard.com\n      Writing library : The best and REALLY easy backup tool\n   Video #0\n      ID : 0\n      Format : MPEG-4 Visual\n      Format profile : AdvancedSimple@L5\n      Format settings, BVOP : Yes\n      Format settings, QPel : No\n      Format settings, GMC : No warppoints\n      Format settings, Matrix : Default (MPEG)\n      Muxing mode : Packed bitstream\n      Codec ID : XVID\n      Codec ID/Hint : XviD\n      Duration : 1h 33mn\n      Bit rate : 1 525 Kbps\n      Width : 672 pixels\n      Height : 480 pixels\n      Display aspect ratio : 1.400\n      Frame rate : 25.000 fps\n      Resolution : 24 bits\n      Colorimetry : 4:2:0\n      Scan type : Progressive\n      Bits/(Pixel*Frame) : 0.189\n      Stream size : 1 020 MiB (88%)\n      Writing library : XviD 1.2.0.dev47 (UTC 2006-11-01)\n   Audio #1\n      ID : 1\n      Format : AC-3\n      Format/Info : Audio Coding 3\n      Codec ID : 2000\n      Duration : 1h 33mn\n      Bit rate mode : Constant\n      Bit rate : 192 Kbps\n      Channel(s) : 2 channels\n      Channel positions : L R\n      Sampling rate : 48.0 KHz\n      Stream size : 128 MiB (11%)\n      Alignment : Split accross interleaves\n      Interleave, duration : 40 ms (1.00 video frame)\n      Interleave, preload duration : 500 ms\n &lt;a href=&quot;\nhttp://www.imdb.com/title/tt0033359/&quot; rel=&quot;nofollow&quot; target=&quot;_NEW&quot;&gt;\nhttp://www.imdb.com/title/tt0033359/&lt;/a&gt;\n\nGerman audio; English and Portuguese subtitles (srt) and English, German, Spanish, French, Italian, Portuguese, Russian, Arab, Japanese subpack (idx/sub)\n\nMy rip of the Goethe Institut DVD\n\nHelmuth KÃƒÂ¤utner - Auf Wiedersehn, Franziska! (1941) ","torrent":{"xt":"urn:btih:a444268f89035aa435aab2633bfcb06086a813bb","amp;dn":"Helmuth+Kautner+-+Auf+Wiedersehn%2C+Franziska%21+%281941%29","amp;tr":["udp%3A%2F%2Ftracker.openbittorrent.com%3A80","udp%3A%2F%2Fopen.demonii.com%3A1337","udp%3A%2F%2Ftracker.coppersurfer.tk%3A6969","udp%3A%2F%2Fexodus.desync.com%3A6969"],"infoHash":"a444268f89035aa435aab2633bfcb06086a813bb","infoHashBuffer":{"type":"Buffer","data":[164,68,38,143,137,3,90,164,53,170,178,99,59,252,176,96,134,168,19,187]},"announce":[],"urlList":[]}}